<svg width="55" height="40" viewBox="0 0 55 40" fill="none" xmlns="http://www.w3.org/2000/svg">
<path d="M55 18.3328C55.0021 16.4188 54.4491 14.5338 53.3899 12.844C52.3307 11.1542 50.7977 9.71138 48.9262 8.64289C47.0546 7.57439 44.902 6.91299 42.658 6.717C40.4141 6.52101 38.1477 6.79645 36.0589 7.51904C33.97 8.24163 32.1228 9.38917 30.68 10.8605C29.2373 12.3318 28.2433 14.0817 27.7858 15.9559C27.3283 17.83 27.4212 19.7709 28.0565 21.6074C28.6918 23.4439 29.8498 25.1196 31.4286 26.4867V38.3322C31.4283 38.6164 31.5138 38.896 31.6768 39.1443C31.8398 39.3926 32.0749 39.6014 32.3598 39.7509C32.6448 39.9004 32.97 39.9856 33.3047 39.9983C33.6393 40.0111 33.9723 39.951 34.2719 39.8238L41.25 36.8614L48.2281 39.8238C48.5277 39.951 48.8607 40.0111 49.1953 39.9983C49.53 39.9856 49.8552 39.9004 50.1402 39.7509C50.4251 39.6014 50.6602 39.3926 50.8232 39.1443C50.9862 38.896 51.0717 38.6164 51.0714 38.3322V26.4867C53.5908 24.3111 55.0017 21.3827 55 18.3328ZM41.25 9.9997C43.1925 9.9997 45.0914 10.4884 46.7065 11.4041C48.3216 12.3197 49.5805 13.6212 50.3238 15.1439C51.0672 16.6665 51.2617 18.342 50.8827 19.9585C50.5037 21.575 49.5683 23.0598 48.1948 24.2252C46.8212 25.3906 45.0712 26.1842 43.1661 26.5058C41.2609 26.8273 39.2861 26.6623 37.4915 26.0316C35.6969 25.4008 34.163 24.3328 33.0838 22.9624C32.0046 21.592 31.4286 19.9809 31.4286 18.3328C31.4286 16.1227 32.4633 14.0032 34.3052 12.4404C36.1471 10.8776 38.6452 9.9997 41.25 9.9997ZM42.129 33.5073C41.8561 33.3915 41.5552 33.3311 41.25 33.3311C40.9448 33.3311 40.6439 33.3915 40.371 33.5073L35.3571 35.6364V28.8721C37.1985 29.6141 39.2115 29.9991 41.25 29.9991C43.2885 29.9991 45.3015 29.6141 47.1429 28.8721V35.6364L42.129 33.5073ZM27.5 31.6657C27.5 32.1077 27.293 32.5316 26.9247 32.8442C26.5563 33.1568 26.0567 33.3323 25.5357 33.3323H3.92857C2.88665 33.3323 1.8874 32.9812 1.15065 32.3561C0.413902 31.731 0 30.8831 0 29.9991V3.33323C0 2.44921 0.413902 1.60138 1.15065 0.976281C1.8874 0.351179 2.88665 0 3.92857 0H47.1429C48.1848 0 49.184 0.351179 49.9208 0.976281C50.6575 1.60138 51.0714 2.44921 51.0714 3.33323C51.0714 3.77525 50.8645 4.19916 50.4961 4.51171C50.1277 4.82426 49.6281 4.99985 49.1071 4.99985C48.5862 4.99985 48.0866 4.82426 47.7182 4.51171C47.3498 4.19916 47.1429 3.77525 47.1429 3.33323H3.92857V29.9991H25.5357C26.0567 29.9991 26.5563 30.1747 26.9247 30.4872C27.293 30.7998 27.5 31.2237 27.5 31.6657ZM23.5714 19.9994C23.5714 20.4414 23.3645 20.8653 22.9961 21.1779C22.6277 21.4904 22.1281 21.666 21.6071 21.666H11.7857C11.2648 21.666 10.7651 21.4904 10.3968 21.1779C10.0284 20.8653 9.82143 20.4414 9.82143 19.9994C9.82143 19.5574 10.0284 19.1335 10.3968 18.8209C10.7651 18.5084 11.2648 18.3328 11.7857 18.3328H21.6071C22.1281 18.3328 22.6277 18.5084 22.9961 18.8209C23.3645 19.1335 23.5714 19.5574 23.5714 19.9994ZM23.5714 13.3329C23.5714 13.7749 23.3645 14.1989 22.9961 14.5114C22.6277 14.824 22.1281 14.9996 21.6071 14.9996H11.7857C11.2648 14.9996 10.7651 14.824 10.3968 14.5114C10.0284 14.1989 9.82143 13.7749 9.82143 13.3329C9.82143 12.8909 10.0284 12.467 10.3968 12.1545C10.7651 11.8419 11.2648 11.6663 11.7857 11.6663H21.6071C22.1281 11.6663 22.6277 11.8419 22.9961 12.1545C23.3645 12.467 23.5714 12.8909 23.5714 13.3329Z" fill="#05399E"/>
</svg>
