<svg width="32" height="32" viewBox="0 0 32 32" fill="none" xmlns="http://www.w3.org/2000/svg">
<path d="M16 7C15.0111 7 14.0444 7.29325 13.2221 7.84265C12.3999 8.39206 11.759 9.17295 11.3806 10.0866C11.0022 11.0002 10.9031 12.0055 11.0961 12.9755C11.289 13.9454 11.7652 14.8363 12.4645 15.5355C13.1637 16.2348 14.0546 16.711 15.0245 16.9039C15.9945 17.0969 16.9998 16.9978 17.9134 16.6194C18.827 16.241 19.6079 15.6001 20.1573 14.7779C20.7068 13.9556 21 12.9889 21 12C21 10.6739 20.4732 9.40215 19.5355 8.46447C18.5979 7.52678 17.3261 7 16 7ZM16 15C15.4067 15 14.8266 14.8241 14.3333 14.4944C13.8399 14.1648 13.4554 13.6962 13.2284 13.1481C13.0013 12.5999 12.9419 11.9967 13.0576 11.4147C13.1734 10.8328 13.4591 10.2982 13.8787 9.87868C14.2982 9.45912 14.8328 9.1734 15.4147 9.05764C15.9967 8.94189 16.5999 9.0013 17.1481 9.22836C17.6962 9.45542 18.1648 9.83994 18.4944 10.3333C18.8241 10.8266 19 11.4067 19 12C19 12.7956 18.6839 13.5587 18.1213 14.1213C17.5587 14.6839 16.7956 15 16 15ZM16 1C13.0836 1.00331 10.2877 2.1633 8.22548 4.22548C6.1633 6.28766 5.00331 9.08363 5 12C5 15.925 6.81375 20.085 10.25 24.0312C11.794 25.8145 13.5318 27.4202 15.4312 28.8188C15.5994 28.9365 15.7997 28.9997 16.005 28.9997C16.2103 28.9997 16.4106 28.9365 16.5788 28.8188C18.4747 27.4196 20.2091 25.8139 21.75 24.0312C25.1813 20.085 27 15.925 27 12C26.9967 9.08363 25.8367 6.28766 23.7745 4.22548C21.7123 2.1633 18.9164 1.00331 16 1ZM16 26.75C13.9337 25.125 7 19.1562 7 12C7 9.61305 7.94821 7.32387 9.63604 5.63604C11.3239 3.94821 13.6131 3 16 3C18.3869 3 20.6761 3.94821 22.364 5.63604C24.0518 7.32387 25 9.61305 25 12C25 19.1537 18.0663 25.125 16 26.75Z" fill="black"/>
</svg>
