<svg width="32" height="32" viewBox="0 0 32 32" fill="none" xmlns="http://www.w3.org/2000/svg">
<path d="M28 29.3226C28 29.5906 27.8946 29.8477 27.7071 30.0372C27.5196 30.2267 27.2652 30.3332 27 30.3332H5C4.73478 30.3332 4.48043 30.2267 4.29289 30.0372C4.10536 29.8477 4 29.5906 4 29.3226C4 29.0545 4.10536 28.7975 4.29289 28.608C4.48043 28.4184 4.73478 28.312 5 28.312H27C27.2652 28.312 27.5196 28.4184 27.7071 28.608C27.8946 28.7975 28 29.0545 28 29.3226ZM28 19.2164V24.2695C28 24.8055 27.7893 25.3197 27.4142 25.6987C27.0391 26.0778 26.5304 26.2907 26 26.2907H6C5.46957 26.2907 4.96086 26.0778 4.58579 25.6987C4.21071 25.3197 4 24.8055 4 24.2695V19.2164C4 18.6803 4.21071 18.1662 4.58579 17.7872C4.96086 17.4081 5.46957 17.1951 6 17.1951H13.0538L11.09 7.93661C10.9649 7.34728 10.9719 6.73714 11.1103 6.15087C11.2487 5.56459 11.515 5.01701 11.8899 4.54821C12.2647 4.07941 12.7385 3.70125 13.2767 3.44141C13.8148 3.18157 14.4036 3.04663 15 3.04647H17C17.5965 3.04644 18.1855 3.18124 18.7237 3.441C19.262 3.70076 19.736 4.07889 20.111 4.54772C20.486 5.01655 20.7524 5.56419 20.8909 6.15056C21.0294 6.73693 21.0363 7.34717 20.9112 7.93661L18.9463 17.1951H26C26.5304 17.1951 27.0391 17.4081 27.4142 17.7872C27.7893 18.1662 28 18.6803 28 19.2164ZM15.0988 17.1951H16.9013L18.955 7.51215C19.0174 7.21753 19.0139 6.91253 18.9446 6.61947C18.8754 6.32641 18.7422 6.05271 18.5548 5.81838C18.3674 5.58405 18.1305 5.39504 17.8615 5.26515C17.5925 5.13527 17.2981 5.06781 17 5.06771H15C14.7018 5.06762 14.4073 5.13494 14.1381 5.26474C13.869 5.39455 13.6319 5.58354 13.4444 5.81789C13.2568 6.05224 13.1235 6.32601 13.0542 6.61916C12.9849 6.91231 12.9813 7.21742 13.0437 7.51215L15.0988 17.1951ZM26 24.2695V19.2164H6V24.2695H26Z" fill="#05399E"/>
</svg>
