<svg width="75" height="75" viewBox="0 0 75 75" fill="none" xmlns="http://www.w3.org/2000/svg">
<path d="M72.4863 34.2773L68.3848 24.0234C68.0368 23.1559 67.4364 22.4128 66.6612 21.8904C65.886 21.3681 64.9719 21.0905 64.0371 21.0937H53.9063V18.75C53.9063 18.1284 53.6593 17.5323 53.2198 17.0927C52.7803 16.6532 52.1841 16.4062 51.5625 16.4062H7.03125C5.78805 16.4063 4.59576 16.9001 3.71669 17.7792C2.83761 18.6583 2.34375 19.8505 2.34375 21.0937V53.9062C2.34375 55.1494 2.83761 56.3417 3.71669 57.2208C4.59576 58.0999 5.78805 58.5937 7.03125 58.5937H12.0117C12.5281 60.6103 13.7009 62.3977 15.3453 63.6741C16.9897 64.9506 19.0121 65.6434 21.0938 65.6434C23.1754 65.6434 25.1978 64.9506 26.8422 63.6741C28.4866 62.3977 29.6595 60.6103 30.1758 58.5937H44.8242C45.3406 60.6103 46.5134 62.3977 48.1578 63.6741C49.8022 64.9506 51.8246 65.6434 53.9063 65.6434C55.9879 65.6434 58.0104 64.9506 59.6547 63.6741C61.2991 62.3977 62.472 60.6103 62.9883 58.5937H67.9688C69.212 58.5937 70.4042 58.0999 71.2833 57.2208C72.1624 56.3417 72.6563 55.1494 72.6563 53.9062V35.1562C72.6571 34.855 72.5993 34.5565 72.4863 34.2773ZM53.9063 25.7812H64.0371L66.8496 32.8125H53.9063V25.7812ZM7.03125 21.0937H49.2188V39.8437H7.03125V21.0937ZM21.0938 60.9375C20.1667 60.9375 19.2604 60.6626 18.4895 60.1475C17.7187 59.6324 17.1179 58.9004 16.7631 58.0438C16.4083 57.1873 16.3155 56.2448 16.4963 55.3355C16.6772 54.4262 17.1236 53.591 17.7792 52.9354C18.4347 52.2799 19.27 51.8334 20.1793 51.6526C21.0886 51.4717 22.0311 51.5645 22.8876 51.9193C23.7441 52.2741 24.4762 52.8749 24.9913 53.6458C25.5063 54.4166 25.7813 55.3229 25.7813 56.25C25.7813 57.4932 25.2874 58.6855 24.4083 59.5646C23.5292 60.4436 22.337 60.9375 21.0938 60.9375ZM44.8242 53.9062H30.1758C29.6595 51.8896 28.4866 50.1023 26.8422 48.8258C25.1978 47.5494 23.1754 46.8566 21.0938 46.8566C19.0121 46.8566 16.9897 47.5494 15.3453 48.8258C13.7009 50.1023 12.5281 51.8896 12.0117 53.9062H7.03125V44.5312H49.2188V48.1377C48.141 48.7606 47.1976 49.5913 46.4433 50.5815C45.6889 51.5717 45.1386 52.7018 44.8242 53.9062ZM53.9063 60.9375C52.9792 60.9375 52.0729 60.6626 51.302 60.1475C50.5312 59.6324 49.9304 58.9004 49.5756 58.0438C49.2208 57.1873 49.128 56.2448 49.3088 55.3355C49.4897 54.4262 49.9361 53.591 50.5917 52.9354C51.2473 52.2799 52.0825 51.8334 52.9918 51.6526C53.9011 51.4717 54.8436 51.5645 55.7001 51.9193C56.5566 52.2741 57.2887 52.8749 57.8038 53.6458C58.3188 54.4166 58.5938 55.3229 58.5938 56.25C58.5938 57.4932 58.0999 58.6855 57.2208 59.5646C56.3417 60.4436 55.1495 60.9375 53.9063 60.9375ZM67.9688 53.9062H62.9883C62.4658 51.8946 61.2907 50.113 59.6473 48.8406C58.0038 47.5683 55.9847 46.877 53.9063 46.875V37.5H67.9688V53.9062Z" fill="black"/>
</svg>
