<svg width="50" height="50" viewBox="0 0 50 50" fill="none" xmlns="http://www.w3.org/2000/svg">
<path d="M25 0C20.0555 0 15.222 1.46622 11.1108 4.21326C6.99952 6.96029 3.79521 10.8648 1.90302 15.4329C0.0108321 20.0011 -0.484251 25.0277 0.480379 29.8773C1.44501 34.7268 3.82603 39.1813 7.32234 42.6777C10.8187 46.174 15.2732 48.555 20.1227 49.5196C24.9723 50.4843 29.9989 49.9892 34.5671 48.097C39.1352 46.2048 43.0397 43.0005 45.7867 38.8892C48.5338 34.778 50 29.9445 50 25C49.993 18.3717 47.3568 12.017 42.6699 7.33006C37.983 2.64317 31.6283 0.00699956 25 0ZM12.0385 41.7067C13.4297 39.531 15.3462 37.7404 17.6114 36.5001C19.8765 35.2598 22.4175 34.6097 25 34.6097C27.5825 34.6097 30.1235 35.2598 32.3887 36.5001C34.6538 37.7404 36.5704 39.531 37.9615 41.7067C34.2556 44.5889 29.6948 46.1537 25 46.1537C20.3052 46.1537 15.7444 44.5889 12.0385 41.7067ZM17.3077 23.0769C17.3077 21.5555 17.7588 20.0683 18.6041 18.8033C19.4493 17.5383 20.6507 16.5524 22.0563 15.9702C23.4619 15.3879 25.0085 15.2356 26.5007 15.5324C27.9929 15.8292 29.3635 16.5618 30.4393 17.6376C31.5151 18.7134 32.2477 20.0841 32.5445 21.5762C32.8413 23.0684 32.689 24.615 32.1068 26.0206C31.5246 27.4262 30.5386 28.6276 29.2736 29.4728C28.0086 30.3181 26.5214 30.7692 25 30.7692C22.9599 30.7692 21.0033 29.9588 19.5607 28.5162C18.1181 27.0736 17.3077 25.117 17.3077 23.0769ZM40.8077 39.0409C38.6629 35.9329 35.6471 33.5284 32.1394 32.1298C34.0236 30.6458 35.3985 28.6115 36.0729 26.3098C36.7473 24.0082 36.6877 21.5536 35.9024 19.2874C35.1171 17.0211 33.6452 15.056 31.6912 13.6651C29.7372 12.2743 27.3984 11.5269 25 11.5269C22.6016 11.5269 20.2628 12.2743 18.3088 13.6651C16.3549 15.056 14.8829 17.0211 14.0976 19.2874C13.3123 21.5536 13.2527 24.0082 13.9271 26.3098C14.6015 28.6115 15.9764 30.6458 17.8606 32.1298C14.3529 33.5284 11.3371 35.9329 9.19232 39.0409C6.48214 35.9932 4.71076 32.227 4.09146 28.1959C3.47217 24.1648 4.03137 20.0406 5.70173 16.3199C7.37209 12.5993 10.0824 9.44081 13.5063 7.22485C16.9301 5.00888 20.9216 3.82992 25 3.82992C29.0784 3.82992 33.0699 5.00888 36.4937 7.22485C39.9176 9.44081 42.6279 12.5993 44.2983 16.3199C45.9686 20.0406 46.5278 24.1648 45.9085 28.1959C45.2893 32.227 43.5179 35.9932 40.8077 39.0409Z" fill="black"/>
</svg>
